<?xml version="1.0" encoding="utf-8"?>
<!-- Generator: Adobe Illustrator 24.1.1, SVG Export Plug-In . SVG Version: 6.00 Build 0)  -->
<svg version="1.1" id="Layer_1" xmlns="http://www.w3.org/2000/svg" xmlns:xlink="http://www.w3.org/1999/xlink" x="0px" y="0px"
	 viewBox="0 0 512 512" style="enable-background:new 0 0 512 512;" xml:space="preserve">
<style type="text/css">
	.st0{fill:#ffffff;}
</style>
<g id="XMLID_2_">
	<path id="XMLID_16_" class="st0" d="M460.8,76.8H51.2C23.3,76.8,0,100.1,0,128v256c0,27.9,23.3,51.2,51.2,51.2h409.6
		c27.9,0,51.2-23.3,51.2-51.2V128C512,99.1,488.7,76.8,460.8,76.8z M230.9,153.1h51.2v51.2h-51.2V153.1z M230.9,230.4h51.2v51.2
		h-51.2V230.4z M153.6,153.1h51.2v51.2h-51.2V153.1z M153.6,230.4h51.2v51.2h-51.2V230.4z M128.5,281.6H77.3v-51.2h51.2V281.6z
		 M128.5,204.3H77.3v-51.2h51.2V204.3z M358.4,384H153.6v-51.2h204.8V384z M358.4,281.6h-51.2v-51.2h51.2V281.6z M358.4,204.3h-51.2
		v-51.2h51.2V204.3z M435.7,281.6h-51.2v-51.2h51.2V281.6z M435.7,204.3h-51.2v-51.2h51.2V204.3z"/>
</g>
</svg>
